<svg width="128" height="128" viewBox="0 0 128 128" fill="none" xmlns="http://www.w3.org/2000/svg">
<path d="M63.8131 48.5904C63.8131 48.3739 63.6377 47.0686 62.9582 44.8758C61.6859 40.7695 55.8026 40.0914 50.5893 39.3074C41.8949 38.0001 37.2305 41.1822 33.6471 42.8548C29.2408 44.9116 25.6957 50.8945 22.8197 56.2269C18.5363 64.1688 18.4119 69.9815 18.007 81.6778C17.921 84.1636 18.6332 84.9017 19.6417 85.7839C25.0399 90.5053 32.2534 92.1869 38.5728 93.3922C49.8166 95.5367 55.3447 91.4855 59.6132 89.3076C63.7566 87.1935 63.7719 81.8155 64.0861 77.6741C64.2572 75.4193 64.61 73.0378 64.8862 71.9922C64.9199 71.8646 64.9526 71.751 64.9842 71.6509M64.9842 71.6509C66.285 67.5421 65.8787 86.3253 65.9984 92.7596C66.0297 94.4429 65.6045 79.253 65.0733 72.1029C65.0617 71.9476 65.031 71.7966 64.9842 71.6509ZM64.9842 71.6509C64.7477 70.9138 64.1012 70.312 63.4598 69.9705C59.6917 69.8428 56.6828 70.3674 53.4017 70.5313C51.0777 70.5871 47.4158 70.5871 43.643 70.5871M108.897 34C102.217 34.0197 87.6884 34.314 83.4394 35.0687C78.5854 35.9308 76.3448 39.6192 74.4812 43.105C72.7506 46.3423 72.655 51.4983 73.584 55.7447C73.9525 57.4292 75.2444 58.877 76.8128 60.2646C81.355 64.2832 89.5337 61.6955 94.3784 61.1136C99.2469 60.5289 103.666 61.1419 106.088 61.8896C110.847 63.3588 111.387 70.7546 111.847 75.8647C112.333 81.2663 111.609 85.402 110.413 86.796C107.69 89.9711 102.411 90.1836 97.4202 90.9375C90.3617 91.1124 85.7364 91.4015 81.1885 91.9397C79.9601 92.034 78.6765 92.034 77.061 91.8214" stroke="white" stroke-width="4" stroke-linecap="round"/>
</svg>
